<?xml version="1.0" encoding="UTF-8"?>
<svg id="Layer_1" data-name="Layer 1" xmlns="http://www.w3.org/2000/svg" version="1.1" xmlns:xlink="http://www.w3.org/1999/xlink" viewBox="0 0 1366 768">
  <defs>
    <style>
      .cls-1 {
        clip-path: url(#clippath-1);
      }

      .cls-2, .cls-3 {
        fill: #fff;
      }

      .cls-4 {
        clip-path: url(#clippath);
      }

      .cls-3 {
        stroke-width: 0px;
      }
    </style>
    <clipPath id="clippath">
      <path class="cls-3" d="M683.8,3.5h-2.6c-56.9.6-102.5,47.2-101.9,104.1.6,56.5,46.6,101.9,103,101.9s.7,0,1.1,0h1.6c5.1,0,23.9.2,28.6.5,26.4,1.4,53.1,5.1,79.3,10.9,28,6.2,56.3,15.1,84.1,26.4,18.7,7.6,37.5,16.4,56.2,26.3,1.5.9,3.1,1.8,4.7,2.7l1.7.9c1.4.7,2.7,1.4,4.1,2.1,7.6,4.2,15.2,8.6,22.7,13.2,31.7,19.2,63.6,42,94.9,67.7,32.2,26.5,64.6,56.9,96.4,90.4.9,1,1.7,2,2.6,2.9l.8.8c20.3,21.6,47.6,32.4,75,32.4s50.6-9.3,70.5-28c20.8-19.5,31.6-45.7,32.4-72.1,0-.3,0-.5,0-.8,0-1.3,0-2.6,0-3.9-.4-24.8-9.7-49.5-28-69-38.8-41.2-78.7-78.8-118.8-111.7-38.9-32.1-79-60.6-119.1-84.9-38.9-23.5-78.8-43.7-118.7-59.9-38.4-15.6-77.7-27.9-116.8-36.6-37.3-8.3-75.4-13.6-113.1-15.6-6.9-.4-31.8-.8-39.8-.8s-.7,0-1,0"/>
    </clipPath>
    <clipPath id="clippath-1">
      <path class="cls-3" d="M59.2,309c-20.8,19.6-31.6,45.7-32.3,72.2,0,.5,0,1.1,0,1.6,0,1,0,2.1,0,3.1.4,24.8,9.7,49.5,28.1,69l.6.6c1.3,1.4,2.7,2.8,4.1,4.1,8.2,8.7,16.6,17.2,24.9,25.5,9.8,9.8,19.8,19.5,29.7,28.8,9.8,9.2,19.8,18.3,29.7,27.1,9.8,8.7,19.8,17.2,29.7,25.4,9.8,8.1,19.8,16.1,29.8,23.7,9.8,7.5,19.8,14.9,29.8,22,9.8,7,19.9,13.9,29.8,20.4,9.8,6.5,19.9,12.8,29.8,18.8,9.8,6,19.9,11.8,29.7,17.3t0,0c1.8,1.1,3.5,2.1,5.4,3.2l2,1.1c2,1.1,4,2.1,6,3,5.4,2.9,10.9,5.7,16.3,8.5,9.8,5,19.8,9.7,29.6,14.2,9.8,4.4,19.7,8.7,29.6,12.7,9.8,4,19.7,7.8,29.4,11.3,9.7,3.5,19.6,6.8,29.3,9.8,9.7,3,19.5,5.9,29.1,8.5,9.6,2.6,19.3,4.9,28.9,7.1,9.5,2.1,19.2,4.1,28.7,5.8,9.4,1.7,19,3.2,28.4,4.5,9.3,1.3,18.8,2.4,28.1,3.3,9.2.9,18.6,1.6,27.8,2,9.1.5,18.3.8,27.5.9.5,0,.9,0,1.4,0,1.2,0,2.3,0,3.5,0,2.6.2,5.2.3,7.8.3h3.2c56.9-.6,102.5-47.2,101.9-104.1-.6-56.5-46.6-101.9-103-101.9h-2.7c-1,0-1.9,0-2.8.1-2.2-.2-4.4-.3-6.6-.3-6.4,0-12.8-.3-19.2-.6-6.5-.3-13-.8-19.4-1.4-6.6-.6-13.2-1.4-19.7-2.3-6.7-.9-13.4-2-20-3.2-6.7-1.2-13.5-2.6-20.3-4.1-6.8-1.5-13.7-3.2-20.6-5-6.9-1.8-13.9-3.9-20.8-6-7-2.2-14.2-4.6-21.2-7.1-7.1-2.6-14.4-5.3-21.5-8.2-7.3-3-14.6-6.1-21.9-9.4-7.3-3.3-14.8-6.9-22.2-10.6-7.5-3.8-15.1-7.8-22.5-11.9-7.6-4.2-15.3-8.7-22.9-13.3-7.7-4.7-15.5-9.6-23.2-14.7-7.8-5.1-15.7-10.6-23.6-16.1-8-5.7-16-11.6-23.9-17.7-8-6.2-16.2-12.6-24.2-19.2-8.2-6.7-16.4-13.7-24.5-20.9-8.3-7.3-16.6-14.9-24.8-22.6-8.3-7.8-16.8-16-25.1-24.3-8.4-8.4-17-17.2-25.4-26.1-20.3-21.5-47.6-32.4-75-32.4s-50.7,9.3-70.6,28"/>
    </clipPath>
  </defs>
  <g>
    <path class="cls-2" d="M683.8,3.5h-2.6c-56.9.6-102.5,47.2-101.9,104.1.6,56.5,46.6,101.9,103,101.9s.7,0,1.1,0h1.6c5.1,0,23.9.2,28.6.5,26.4,1.4,53.1,5.1,79.3,10.9,28,6.2,56.3,15.1,84.1,26.4,18.7,7.6,37.5,16.4,56.2,26.3,1.5.9,3.1,1.8,4.7,2.7l1.7.9c1.4.7,2.7,1.4,4.1,2.1,7.6,4.2,15.2,8.6,22.7,13.2,31.7,19.2,63.6,42,94.9,67.7,32.2,26.5,64.6,56.9,96.4,90.4.9,1,1.7,2,2.6,2.9l.8.8c20.3,21.6,47.6,32.4,75,32.4s50.6-9.3,70.5-28c20.8-19.5,31.6-45.7,32.4-72.1,0-.3,0-.5,0-.8,0-1.3,0-2.6,0-3.9-.4-24.8-9.7-49.5-28-69-38.8-41.2-78.7-78.8-118.8-111.7-38.9-32.1-79-60.6-119.1-84.9-38.9-23.5-78.8-43.7-118.7-59.9-38.4-15.6-77.7-27.9-116.8-36.6-37.3-8.3-75.4-13.6-113.1-15.6-6.9-.4-31.8-.8-39.8-.8s-.7,0-1,0"/>
    <g class="cls-4">
      <rect class="cls-3" x="578.8" y="3.4" width="760.4" height="483.4"/>
    </g>
  </g>
  <path class="cls-3" d="M378,291.5c16.3,0,32.9-3.9,48.3-12.1l1.7-.9c50.3-26.6,69.4-88.9,42.8-139.2-26.6-50.3-88.9-69.4-139.2-42.8l-2,1.1c-50.2,26.7-69.3,89.1-42.5,139.3,18.5,34.8,54.2,54.6,91,54.6"/>
  <path class="cls-3" d="M939.7,488.6l-1.7.9c-50.3,26.6-69.4,88.9-42.8,139.2,18.5,34.9,54.2,54.8,91.1,54.8s32.7-3.9,48.1-12l2-1.1c50.2-26.7,69.3-89.1,42.5-139.3-26.7-50.2-89.1-69.3-139.3-42.5"/>
  <g>
    <path class="cls-2" d="M59.2,309c-20.8,19.6-31.6,45.7-32.3,72.2,0,.5,0,1.1,0,1.6,0,1,0,2.1,0,3.1.4,24.8,9.7,49.5,28.1,69l.6.6c1.3,1.4,2.7,2.8,4.1,4.1,8.2,8.7,16.6,17.2,24.9,25.5,9.8,9.8,19.8,19.5,29.7,28.8,9.8,9.2,19.8,18.3,29.7,27.1,9.8,8.7,19.8,17.2,29.7,25.4,9.8,8.1,19.8,16.1,29.8,23.7,9.8,7.5,19.8,14.9,29.8,22,9.8,7,19.9,13.9,29.8,20.4,9.8,6.5,19.9,12.8,29.8,18.8,9.8,6,19.9,11.8,29.7,17.3t0,0c1.8,1.1,3.5,2.1,5.4,3.2l2,1.1c2,1.1,4,2.1,6,3,5.4,2.9,10.9,5.7,16.3,8.5,9.8,5,19.8,9.7,29.6,14.2,9.8,4.4,19.7,8.7,29.6,12.7,9.8,4,19.7,7.8,29.4,11.3,9.7,3.5,19.6,6.8,29.3,9.8,9.7,3,19.5,5.9,29.1,8.5,9.6,2.6,19.3,4.9,28.9,7.1,9.5,2.1,19.2,4.1,28.7,5.8,9.4,1.7,19,3.2,28.4,4.5,9.3,1.3,18.8,2.4,28.1,3.3,9.2.9,18.6,1.6,27.8,2,9.1.5,18.3.8,27.5.9.5,0,.9,0,1.4,0,1.2,0,2.3,0,3.5,0,2.6.2,5.2.3,7.8.3h3.2c56.9-.6,102.5-47.2,101.9-104.1-.6-56.5-46.6-101.9-103-101.9h-2.7c-1,0-1.9,0-2.8.1-2.2-.2-4.4-.3-6.6-.3-6.4,0-12.8-.3-19.2-.6-6.5-.3-13-.8-19.4-1.4-6.6-.6-13.2-1.4-19.7-2.3-6.7-.9-13.4-2-20-3.2-6.7-1.2-13.5-2.6-20.3-4.1-6.8-1.5-13.7-3.2-20.6-5-6.9-1.8-13.9-3.9-20.8-6-7-2.2-14.2-4.6-21.2-7.1-7.1-2.6-14.4-5.3-21.5-8.2-7.3-3-14.6-6.1-21.9-9.4-7.3-3.3-14.8-6.9-22.2-10.6-7.5-3.8-15.1-7.8-22.5-11.9-7.6-4.2-15.3-8.7-22.9-13.3-7.7-4.7-15.5-9.6-23.2-14.7-7.8-5.1-15.7-10.6-23.6-16.1-8-5.7-16-11.6-23.9-17.7-8-6.2-16.2-12.6-24.2-19.2-8.2-6.7-16.4-13.7-24.5-20.9-8.3-7.3-16.6-14.9-24.8-22.6-8.3-7.8-16.8-16-25.1-24.3-8.4-8.4-17-17.2-25.4-26.1-20.3-21.5-47.6-32.4-75-32.4s-50.7,9.3-70.6,28"/>
    <g class="cls-1">
      <rect class="cls-3" x="26.8" y="281" width="760.4" height="483.5"/>
    </g>
  </g>
  <path class="cls-3" d="M682,518.3c-73.1,0-132.7-58.9-133.5-132.2-.8-73.7,58.4-134.2,132.1-134.9h3.3c73.8-.4,133.9,59,134.3,132.7.4,73.7-59,133.9-132.8,134.3h-2.1c-.5,0-1,0-1.4,0"/>
</svg>